<svg width="40" height="40" viewBox="0 0 40 40" fill="none" xmlns="http://www.w3.org/2000/svg">
<g id="Apple Logo">
<path id="Vector" d="M34.0866 13.0466C33.9226 13.1493 30.0186 15.3159 30.0186 20.1199C30.2026 25.5986 34.9453 27.5199 35.0266 27.5199C34.9453 27.6226 34.3106 30.1373 32.4306 32.7733C30.9386 35.0439 29.2826 37.3333 26.768 37.3333C24.376 37.3333 23.5173 35.8199 20.7573 35.8199C17.7933 35.8199 16.9546 37.3333 14.6853 37.3333C12.1706 37.3333 10.392 34.9213 8.81864 32.6719C6.77464 29.7279 5.03731 25.1079 4.97598 20.6719C4.93464 18.3213 5.38531 16.0106 6.52931 14.0479C8.14398 11.3079 11.0266 9.44794 14.1746 9.38661C16.5866 9.30528 18.7333 11.0426 20.2053 11.0426C21.616 11.0426 24.2533 9.38661 27.2373 9.38661C28.5253 9.38794 31.96 9.77594 34.0866 13.0466ZM20.0013 8.91728C19.572 6.77061 20.7573 4.62394 21.8613 3.25461C23.272 1.59861 25.5 0.474609 27.4213 0.474609C27.544 2.62128 26.7666 4.72661 25.3773 6.25994C24.1306 7.91594 21.984 9.16261 20.0013 8.91728Z" fill="black"/>
</g>
</svg>
