<svg width="30" height="30" viewBox="0 0 30 30" fill="none" xmlns="http://www.w3.org/2000/svg">
<g id="bx-qr-scan.svg">
<path id="Vector" d="M5 5H10.0125V2.5H2.5V10H5V5ZM5 20H2.5V27.5H10.0125V25H5V20ZM25 25H20V27.5H27.5V20H25V25ZM20 5H25V10H27.5V2.5H20V5Z" fill="white"/>
<path id="Vector_2" d="M6.25 13.75H13.75V6.25H6.25V13.75ZM8.75 8.75H11.25V11.25H8.75V8.75ZM6.25 23.75H13.75V16.25H6.25V23.75ZM8.75 18.75H11.25V21.25H8.75V18.75ZM23.75 6.25H16.25V13.75H23.75V6.25ZM21.25 11.25H18.75V8.75H21.25V11.25ZM16.2625 16.25H18.7625V18.75H16.2625V16.25ZM18.7625 18.75H21.2625V21.25H18.7625V18.75ZM21.2625 21.25H23.7625V23.75H21.2625V21.25ZM21.2625 16.25H23.7625V18.75H21.2625V16.25Z" fill="white"/>
</g>
</svg>
