<svg width="30" height="30" viewBox="0 0 30 30" fill="none" xmlns="http://www.w3.org/2000/svg">
<g id="bxs-cog.svg">
<path id="Vector" d="M2.92999 19.0887L5.42999 23.4138C5.59597 23.7006 5.86908 23.9098 6.18928 23.9954C6.50948 24.081 6.85055 24.0359 7.13749 23.87L8.88249 22.8625C9.60749 23.4338 10.4087 23.9025 11.2512 24.2525V26.25C11.2512 26.5815 11.3829 26.8995 11.6174 27.1339C11.8518 27.3683 12.1697 27.5 12.5012 27.5H17.5012C17.8328 27.5 18.1507 27.3683 18.3851 27.1339C18.6195 26.8995 18.7512 26.5815 18.7512 26.25V24.2525C19.6003 23.899 20.3973 23.4313 21.12 22.8625L22.865 23.87C23.4612 24.2138 24.2287 24.0075 24.5725 23.4138L27.0725 19.0887C27.237 18.8015 27.2814 18.4609 27.1959 18.1411C27.1105 17.8213 26.9021 17.5482 26.6162 17.3812L24.9012 16.39C25.0352 15.4681 25.0344 14.5316 24.8987 13.61L26.6137 12.6188C27.2087 12.275 27.415 11.5063 27.07 10.9113L24.57 6.58625C24.404 6.29937 24.1309 6.09015 23.8107 6.00459C23.4905 5.91903 23.1494 5.96414 22.8625 6.13L21.1175 7.1375C20.3957 6.56797 19.5991 6.10027 18.75 5.7475V3.75C18.75 3.41848 18.6183 3.10054 18.3839 2.86612C18.1495 2.6317 17.8315 2.5 17.5 2.5H12.5C12.1685 2.5 11.8505 2.6317 11.6161 2.86612C11.3817 3.10054 11.25 3.41848 11.25 3.75V5.7475C10.4009 6.10101 9.60398 6.56865 8.88124 7.1375L7.13749 6.13C6.99545 6.04771 6.83858 5.99423 6.67585 5.97263C6.51313 5.95102 6.34774 5.96172 6.18914 6.00409C6.03055 6.04647 5.88187 6.1197 5.75161 6.21959C5.62135 6.31948 5.51206 6.44408 5.42999 6.58625L2.92999 10.9113C2.76548 11.1985 2.72112 11.5391 2.80657 11.8589C2.89203 12.1787 3.10037 12.4518 3.38624 12.6188L5.10124 13.61C4.96641 14.5318 4.96641 15.4682 5.10124 16.39L3.38624 17.3812C2.79124 17.725 2.58499 18.4937 2.92999 19.0887ZM15 10C17.7575 10 20 12.2425 20 15C20 17.7575 17.7575 20 15 20C12.2425 20 9.99999 17.7575 9.99999 15C9.99999 12.2425 12.2425 10 15 10Z" fill="white"/>
</g>
</svg>
