<svg width="40" height="40" viewBox="0 0 40 40" fill="none" xmlns="http://www.w3.org/2000/svg">
<g id="Facebook">
<path id="Vector" d="M20 4.16675C15.8007 4.16675 11.7734 5.8349 8.8041 8.80422C5.83478 11.7735 4.16663 15.8008 4.16663 20.0001C4.16663 24.1993 5.83478 28.2266 8.8041 31.1959C11.7734 34.1653 15.8007 35.8334 20 35.8334C24.1992 35.8334 28.2265 34.1653 31.1958 31.1959C34.1651 28.2266 35.8333 24.1993 35.8333 20.0001C35.8333 15.8008 34.1651 11.7735 31.1958 8.80422C28.2265 5.8349 24.1992 4.16675 20 4.16675Z" fill="#039BE5"/>
<path id="Vector_2" d="M22.1434 24.1966H26.2409L26.8842 20.0341H22.1426V17.7591C22.1426 16.03 22.7076 14.4966 24.3251 14.4966H26.9242V10.8641C26.4676 10.8025 25.5017 10.6675 23.6767 10.6675C19.8659 10.6675 17.6317 12.68 17.6317 17.265V20.0341H13.7142V24.1966H17.6317V35.6375C18.4076 35.7541 19.1934 35.8333 20.0001 35.8333C20.7292 35.8333 21.4409 35.7666 22.1434 35.6716V24.1966Z" fill="white"/>
</g>
</svg>
