<svg width="30" height="30" viewBox="0 0 30 30" fill="none" xmlns="http://www.w3.org/2000/svg">
<g id="LockClosedOutline">
<path id="Vector" d="M15 18.75V21.25V18.75ZM7.49996 26.25H22.5C23.163 26.25 23.7989 25.9866 24.2677 25.5178C24.7366 25.0489 25 24.413 25 23.75V16.25C25 15.587 24.7366 14.9511 24.2677 14.4822C23.7989 14.0134 23.163 13.75 22.5 13.75H7.49996C6.83691 13.75 6.20103 14.0134 5.73219 14.4822C5.26335 14.9511 4.99995 15.587 4.99995 16.25V23.75C4.99995 24.413 5.26335 25.0489 5.73219 25.5178C6.20103 25.9866 6.83691 26.25 7.49996 26.25ZM20 13.75V8.75C20 7.42392 19.4732 6.15215 18.5355 5.21447C17.5978 4.27678 16.326 3.75 15 3.75C13.6739 3.75 12.4021 4.27678 11.4644 5.21447C10.5267 6.15215 9.99996 7.42392 9.99996 8.75V13.75H20Z" stroke="#FF3D64" stroke-width="2.42" stroke-linecap="round" stroke-linejoin="round"/>
</g>
</svg>
