<svg width="25" height="24" viewBox="0 0 25 24" fill="none" xmlns="http://www.w3.org/2000/svg">
<g id="MailOutline">
<path id="Vector" d="M3.01025 8L10.9003 13.26C11.2289 13.4793 11.6152 13.5963 12.0103 13.5963C12.4053 13.5963 12.7916 13.4793 13.1203 13.26L21.0103 8H3.01025ZM5.01025 19H19.0103C19.5407 19 20.0494 18.7893 20.4245 18.4142C20.7995 18.0391 21.0103 17.5304 21.0103 17V7C21.0103 6.46957 20.7995 5.96086 20.4245 5.58579C20.0494 5.21071 19.5407 5 19.0103 5H5.01025C4.47982 5 3.97111 5.21071 3.59604 5.58579C3.22097 5.96086 3.01025 6.46957 3.01025 7V17C3.01025 17.5304 3.22097 18.0391 3.59604 18.4142C3.97111 18.7893 4.47982 19 5.01025 19Z" stroke="#FF3D64" stroke-linecap="round" stroke-linejoin="round"/>
</g>
</svg>
