<svg width="25" height="24" viewBox="0 0 25 24" fill="none" xmlns="http://www.w3.org/2000/svg">
<g id="PhoneOutline">
<path id="Vector" d="M3.01025 5C3.01025 4.46957 3.22097 3.96086 3.59604 3.58579C3.97111 3.21071 4.47982 3 5.01025 3H8.29025C8.50005 3.00016 8.70448 3.0663 8.87461 3.18905C9.04474 3.3118 9.17196 3.48496 9.23825 3.684L10.7363 8.177C10.8122 8.40534 10.8032 8.65339 10.711 8.87564C10.6188 9.0979 10.4495 9.27945 10.2343 9.387L7.97725 10.517C9.08357 12.9655 11.0447 14.9267 13.4933 16.033L14.6233 13.776C14.7308 13.5607 14.9124 13.3915 15.1346 13.2993C15.3569 13.2071 15.6049 13.1981 15.8333 13.274L20.3263 14.772C20.5255 14.8383 20.6987 14.9657 20.8215 15.136C20.9443 15.3064 21.0103 15.511 21.0103 15.721V19C21.0103 19.5304 20.7995 20.0391 20.4245 20.4142C20.0494 20.7893 19.5407 21 19.0103 21H18.0103C9.72625 21 3.01025 14.284 3.01025 6V5Z" stroke="#FF3D64" stroke-linecap="round" stroke-linejoin="round"/>
</g>
</svg>
