<svg width="173" height="174" viewBox="0 0 173 174" fill="none" xmlns="http://www.w3.org/2000/svg">
<g id="freepik--qr-code--inject-71">
<path id="Vector" d="M14.3689 104.934V112.647H22.0816V104.934V97.2087H14.3689V104.934Z" fill="#263238"/>
<path id="Vector_2" d="M22.0816 58.645H14.3689V66.3578H22.0816V58.645Z" fill="#263238"/>
<path id="Vector_3" d="M69.7535 143.573H62.0408V151.285H69.7535V143.573Z" fill="#263238"/>
<path id="Vector_4" d="M22.0816 74.0707V81.7834H14.3689V89.4961H22.0816V97.2089H29.7943H37.5196V104.934H45.2323V97.2089H52.945V89.4961V81.7834H45.2323V89.4961H37.5196H29.7943V81.7834V74.0707V66.3579H22.0816V74.0707Z" fill="#263238"/>
<path id="Vector_5" d="M37.5194 58.645H29.7942V66.3578H37.5194H45.2321V58.645H37.5194Z" fill="#263238"/>
<path id="Vector_6" d="M72.2331 120.659H76.3699V112.946H72.2331H68.084V120.659H72.2331Z" fill="#263238"/>
<path id="Vector_7" d="M52.9449 66.3579H45.2322V74.0707H52.9449V66.3579Z" fill="#263238"/>
<path id="Vector_8" d="M106.947 97.2087H99.2339V104.921H106.947V97.2087Z" fill="#263238"/>
<path id="Vector_9" d="M114.659 12.3562H106.947V20.0689H114.659V12.3562Z" fill="#263238"/>
<path id="Vector_10" d="M68.3703 74.0706V66.3579H76.0831V58.6451H68.3703V50.9324H60.6576V58.6451H52.9448V66.3579H60.6576V74.0706V81.7833V89.4961V97.2088H68.3703V89.4961V81.7833H76.0831V74.0706H68.3703Z" fill="#263238"/>
<path id="Vector_11" d="M106.947 151.21H114.659V143.498H106.947H99.2339V151.21H106.947Z" fill="#263238"/>
<path id="Vector_12" d="M99.2337 12.3562H91.521V20.0689H99.2337V12.3562Z" fill="#263238"/>
<path id="Vector_13" d="M97.3025 74.0705V66.3578H89.5898V58.645H81.877V66.3578V74.0705H74.1643V81.7832H81.877H89.5898V74.0705H97.3025Z" fill="#263238"/>
<path id="Vector_14" d="M140.838 58.645H133.125V66.3578H140.838V58.645Z" fill="#263238"/>
<path id="Vector_15" d="M60.8819 97.2087H53.1692V104.921H60.8819V97.2087Z" fill="#263238"/>
<path id="Vector_16" d="M91.5212 50.9323V43.2195H99.2339V35.4943H106.947H114.659V27.7816H106.947V20.0688H99.2339V27.7816H91.5212V35.4943H83.796V43.2195H76.0833V50.9323H83.796H91.5212Z" fill="#263238"/>
<path id="Vector_17" d="M91.5212 104.934V97.2088H99.2339V89.4961H91.5212H83.796V97.2088H76.0833V104.934H83.796H91.5212Z" fill="#263238"/>
<path id="Vector_18" d="M114.659 135.785V128.06H106.947H99.2338V120.347H91.521V128.06H83.7958V135.785H76.0831H68.3704V143.498H76.0831H83.7958H91.521V135.785H99.2338V143.498H106.947V135.785H114.659Z" fill="#263238"/>
<path id="Vector_19" d="M83.7959 20.0689V12.3562H76.0832H68.3705V20.0689H60.6577V27.7817H68.3705H76.0832V20.0689H83.7959Z" fill="#263238"/>
<path id="Vector_20" d="M83.796 27.7817H76.0833V35.4945H83.796V27.7817Z" fill="#263238"/>
<path id="Vector_21" d="M103.084 58.6449H95.3711V66.3577V74.0704V81.7832H103.084H110.797V74.0704H103.084V66.3577H110.797V58.6449H118.509V50.9322H110.797V43.2195H103.084V50.9322V58.6449Z" fill="#263238"/>
<path id="Vector_22" d="M76.0831 35.4944H68.3704V43.2071H76.0831V35.4944Z" fill="#263238"/>
<path id="Vector_23" d="M99.2339 112.647V120.36H106.947H114.659V112.647H122.372H130.085V104.934H122.372H114.659H106.947V112.647H99.2339Z" fill="#263238"/>
<path id="Vector_24" d="M140.838 81.7832H133.125V89.4959H140.838V81.7832Z" fill="#263238"/>
<path id="Vector_25" d="M114.659 89.4961H106.947V97.2088H114.659V89.4961Z" fill="#263238"/>
<path id="Vector_26" d="M133.947 66.3579H126.235H118.51V74.0707H126.235V81.7834H133.947V74.0707V66.3579Z" fill="#263238"/>
<path id="Vector_27" d="M130.085 89.4961H122.372V97.2088H130.085V89.4961Z" fill="#263238"/>
<path id="Vector_28" d="M45.2321 135.934H68.3828V104.921H37.3699V112.647H29.8066V120.359H37.3699V128.072H29.8066V135.785H37.3699V135.934H37.5194V143.498H29.8066V158.923H37.5194V151.185H45.2321V135.934ZM62.4394 110.852V130.14H43.1513V110.852H62.4394Z" fill="#263238"/>
<path id="Vector_29" d="M145.51 104.934H153.223V97.2087H145.51H137.798H130.085V104.934H137.798H145.51Z" fill="#263238"/>
<path id="Vector_30" d="M145.51 74.0705H153.223V66.3578V58.645H145.51V66.3578V74.0705Z" fill="#263238"/>
<path id="Vector_31" d="M84.0948 112.946H76.3696V120.659V128.371H84.0948V120.659V112.946Z" fill="#263238"/>
<path id="Vector_32" d="M160.936 104.934H153.223V112.647H160.936V104.934Z" fill="#263238"/>
<path id="Vector_33" d="M160.948 89.4959V81.7832H153.223V89.4959V97.2087H160.948V89.4959Z" fill="#263238"/>
<path id="Vector_34" d="M22.0816 143.498H14.3689V151.21V158.923H22.0816V151.21V143.498Z" fill="#263238"/>
<path id="Vector_35" d="M160.948 50.9324V12.3064H122.322V50.9324H160.948ZM128.154 45.1385V18.1377H155.154V45.1385H128.154Z" fill="#263238"/>
<path id="Vector_36" d="M149.373 23.9314H133.948V39.3569H149.373V23.9314Z" fill="#263238"/>
<path id="Vector_37" d="M160.948 120.359H122.322V158.923H160.948V120.359ZM128.154 153.142V126.141H155.154V153.142H128.154Z" fill="#263238"/>
<path id="Vector_38" d="M149.373 131.922H133.948V147.348H149.373V131.922Z" fill="#263238"/>
<path id="Vector_39" d="M14.2815 12.3562V50.9822H52.8203V12.3562H14.2815ZM47.0638 18.1376V45.1385H20.0629V18.1376H47.0638Z" fill="#263238"/>
<path id="Vector_40" d="M41.27 23.9314H25.8445V39.3569H41.27V23.9314Z" fill="#263238"/>
<path id="Vector_41" d="M3.27931 39.2449V11.8329C3.10393 9.31776 3.8775 6.82819 5.44737 4.85531C6.38726 3.81765 7.54471 3.00039 8.83707 2.46191C10.1294 1.92343 11.5248 1.67702 12.9234 1.74031H41.7309C41.9589 1.74031 42.1776 1.64974 42.3388 1.48851C42.5 1.32728 42.5906 1.10858 42.5906 0.880567C42.5906 0.65255 42.5 0.433876 42.3388 0.272644C42.1776 0.111411 41.9589 0.0208238 41.7309 0.0208238H13.2723C10.8622 -0.10018 8.47105 0.503042 6.40678 1.75278C4.92308 2.74078 3.70426 4.07748 2.85708 5.64585C2.0099 7.21421 1.56022 8.96638 1.54739 10.7489C1.47263 15.2594 1.54739 19.7824 1.54739 24.2804V39.2324C1.57284 39.4442 1.67502 39.6393 1.83459 39.7809C1.99416 39.9224 2.20006 40.0006 2.41337 40.0006C2.62667 40.0006 2.83257 39.9224 2.99214 39.7809C3.15171 39.6393 3.25386 39.4442 3.27931 39.2324V39.2449Z" fill="white"/>
<path id="Vector_42" d="M39.239 171.956H11.827C9.31251 172.126 6.82509 171.353 4.84935 169.788C3.81305 168.847 2.99671 167.69 2.45834 166.398C1.91997 165.105 1.67279 163.711 1.73435 162.312V133.467C1.73435 133.239 1.64378 133.021 1.48254 132.859C1.32131 132.698 1.10262 132.608 0.874602 132.608C0.646585 132.608 0.427893 132.698 0.26666 132.859C0.105428 133.021 0.0148594 133.239 0.0148594 133.467V161.963C-0.104614 164.373 0.498497 166.764 1.74682 168.829C2.73465 170.312 4.07163 171.529 5.64026 172.375C7.2089 173.22 8.96114 173.667 10.7429 173.676C15.2535 173.751 19.764 173.676 24.2745 173.676H39.2265C39.4545 173.676 39.6732 173.585 39.8344 173.424C39.9957 173.263 40.0862 173.044 40.0862 172.816C40.0862 172.588 39.9957 172.369 39.8344 172.208C39.6732 172.047 39.4545 171.956 39.2265 171.956H39.239Z" fill="white"/>
<path id="Vector_43" d="M171.116 133.193V160.605C171.291 163.12 170.517 165.61 168.948 167.583C168.008 168.621 166.851 169.439 165.558 169.977C164.266 170.516 162.87 170.762 161.472 170.698H132.627C132.399 170.698 132.18 170.788 132.019 170.95C131.857 171.111 131.767 171.33 131.767 171.558C131.767 171.786 131.857 172.004 132.019 172.165C132.18 172.327 132.399 172.417 132.627 172.417H161.123C163.533 172.538 165.924 171.935 167.988 170.685C169.471 169.698 170.689 168.361 171.534 166.792C172.379 165.223 172.826 163.471 172.835 161.689C172.922 157.179 172.835 152.668 172.835 148.158V133.206C172.835 132.978 172.744 132.759 172.583 132.598C172.422 132.437 172.203 132.346 171.975 132.346C171.747 132.346 171.529 132.437 171.367 132.598C171.206 132.759 171.116 132.978 171.116 133.206V133.193Z" fill="white"/>
<path id="Vector_44" d="M133.125 1.75271H160.537C163.054 1.58084 165.544 2.35889 167.515 3.93321C168.556 4.87036 169.375 6.02733 169.914 7.32036C170.453 8.61338 170.697 10.0101 170.63 11.4092V40.2915C170.63 40.5195 170.72 40.7382 170.882 40.8994C171.043 41.0606 171.261 41.1512 171.489 41.1512C171.717 41.1512 171.936 41.0606 172.097 40.8994C172.259 40.7382 172.349 40.5195 172.349 40.2915V11.7581C172.47 9.34406 171.867 6.9489 170.617 4.88017C169.629 3.39724 168.292 2.17968 166.724 1.33453C165.155 0.489385 163.403 0.0425269 161.621 0.0332267C157.111 -0.0415333 152.6 0.0332267 148.09 0.0332267H133.138C132.91 0.0332267 132.691 0.123795 132.53 0.285028C132.368 0.44626 132.278 0.664952 132.278 0.89297C132.278 1.12099 132.368 1.33966 132.53 1.50089C132.691 1.66213 132.91 1.75271 133.138 1.75271H133.125Z" fill="white"/>
</g>
</svg>
