<svg width="25" height="24" viewBox="0 0 25 24" fill="none" xmlns="http://www.w3.org/2000/svg">
<g id="UserOutline">
<path id="Vector" d="M16.0103 7C16.0103 8.06087 15.5888 9.07828 14.8387 9.82843C14.0885 10.5786 13.0711 11 12.0103 11C10.9494 11 9.93197 10.5786 9.18183 9.82843C8.43168 9.07828 8.01025 8.06087 8.01025 7C8.01025 5.93913 8.43168 4.92172 9.18183 4.17157C9.93197 3.42143 10.9494 3 12.0103 3C13.0711 3 14.0885 3.42143 14.8387 4.17157C15.5888 4.92172 16.0103 5.93913 16.0103 7V7ZM12.0103 14C10.1537 14 8.37326 14.7375 7.06051 16.0503C5.74775 17.363 5.01025 19.1435 5.01025 21H19.0103C19.0103 19.1435 18.2728 17.363 16.96 16.0503C15.6472 14.7375 13.8668 14 12.0103 14V14Z" stroke="#FF3D64" stroke-linecap="round" stroke-linejoin="round"/>
</g>
</svg>
